<svg width="20" height="20" viewBox="0 0 20 20" fill="none" xmlns="http://www.w3.org/2000/svg">
  <!-- Folder shape -->
  <path d="M 2 6 L 2 16 C 2 17 2.5 17.5 3.5 17.5 L 16.5 17.5 C 17.5 17.5 18 17 18 16 L 18 7 C 18 6 17.5 5.5 16.5 5.5 L 10 5.5 L 8.5 3.5 C 8.2 3.2 7.8 3 7.5 3 L 3.5 3 C 2.5 3 2 3.5 2 4.5 Z"
        fill="currentColor"
        opacity="0.2"/>

  <path d="M 2 6 L 2 16 C 2 17 2.5 17.5 3.5 17.5 L 16.5 17.5 C 17.5 17.5 18 17 18 16 L 18 7 C 18 6 17.5 5.5 16.5 5.5 L 10 5.5 L 8.5 3.5 C 8.2 3.2 7.8 3 7.5 3 L 3.5 3 C 2.5 3 2 3.5 2 4.5 Z"
        stroke="currentColor"
        stroke-width="1.5"
        stroke-linejoin="round"
        fill="none"/>
</svg>
